<svg width="32" height="32" viewBox="0 0 32 32" fill="none" xmlns="http://www.w3.org/2000/svg">
<rect width="32" height="32" fill="url(#paint0_linear_6715_60)"/>
<path d="M15.8615 26C14.8564 26 13.9846 25.8331 13.2462 25.4992C12.5077 25.1653 11.9436 24.5754 11.5538 23.7295C11.1846 22.8837 11 21.6928 11 20.1569V19.0217C11.4923 19.0217 11.9949 19.0217 12.5077 19.0217C13.0205 19.0217 13.5231 19.0217 14.0154 19.0217V20.424C14.0154 21.3589 14.0974 22.0824 14.2615 22.5943C14.4256 23.1063 14.6513 23.4624 14.9385 23.6628C15.2256 23.8408 15.5538 23.9299 15.9231 23.9299C16.5179 23.9299 16.9897 23.7184 17.3385 23.2955C17.7077 22.8503 17.8923 22.0267 17.8923 20.8247C17.8923 19.9343 17.7692 19.2666 17.5231 18.8214C17.2769 18.3762 16.8872 18.02 16.3538 17.7529C15.841 17.4635 15.1744 17.1408 14.3538 16.7846C13.6769 16.4508 13.0923 16.0612 12.6 15.616C12.1077 15.1708 11.7385 14.6032 11.4923 13.9132C11.2462 13.2231 11.1231 12.3662 11.1231 11.3422C11.1231 10.0957 11.2667 9.08292 11.5538 8.30384C11.8615 7.5025 12.3744 6.92376 13.0923 6.56761C13.8103 6.1892 14.7744 6 15.9846 6C17.5436 6 18.7333 6.38954 19.5538 7.16861C20.3744 7.92543 20.7846 9.0384 20.7846 10.5075V12.8114C20.3128 12.8114 19.8308 12.8114 19.3385 12.8114C18.8667 12.8114 18.3846 12.8114 17.8923 12.8114V11.4424C17.8923 10.4185 17.7385 9.68392 17.4308 9.23873C17.1436 8.77128 16.6718 8.53756 16.0154 8.53756C15.3385 8.53756 14.8462 8.76016 14.5385 9.20534C14.2513 9.62827 14.1077 10.3072 14.1077 11.2421C14.1077 12.0434 14.2513 12.6667 14.5385 13.1119C14.8256 13.5348 15.1949 13.8687 15.6462 14.1135C16.1179 14.3584 16.6 14.581 17.0923 14.7813C18.0154 15.1597 18.7641 15.5492 19.3385 15.9499C19.9128 16.3506 20.3333 16.8848 20.6 17.5526C20.8667 18.2204 21 19.1664 21 20.3907C21 21.793 20.7846 22.906 20.3538 23.7295C19.9436 24.5309 19.3487 25.1096 18.5692 25.4658C17.8103 25.8219 16.9077 26 15.8615 26Z" fill="white"/>
<defs>
<linearGradient id="paint0_linear_6715_60" x1="6.32768" y1="9.62149e-06" x2="33.8513" y2="3.40621" gradientUnits="userSpaceOnUse">
<stop stop-color="#ED0233"/>
<stop offset="1" stop-color="#003EB7"/>
</linearGradient>
</defs>
</svg>
